<svg width="80" height="81" viewBox="0 0 80 81" fill="none" xmlns="http://www.w3.org/2000/svg">
<path d="M65.0718 65.6362H76.2146V76.4089C76.2146 78.3911 74.9666 79.9998 73.4289 79.9998H67.8575C66.3198 79.9998 65.0718 78.3911 65.0718 76.4089V65.6362Z" stroke="#BA9731" stroke-width="2"/>
<path d="M3.78613 65.6362H14.929V76.4089C14.929 78.3911 13.681 79.9998 12.1433 79.9998H6.57185C5.03413 79.9998 3.78613 78.3911 3.78613 76.4089V65.6362Z" stroke="#BA9731" stroke-width="2"/>
<path d="M14.929 29.7271H65.0719C71.2255 29.7271 76.2148 36.1584 76.2148 44.0907V62.0452C76.2148 64.0274 74.9667 65.6361 73.429 65.6361H6.57185C5.03413 65.6361 3.78613 64.0274 3.78613 62.0452V44.0907C3.78613 36.1584 8.77535 29.7271 14.929 29.7271Z" stroke="#BA9731" stroke-width="2"/>
<path d="M65.0718 44.0908C66.6096 44.0908 67.8576 45.6995 67.8576 47.6817C67.8576 49.6639 66.6096 51.2726 65.0718 51.2726C63.5341 51.2726 62.2861 49.6639 62.2861 47.6817C62.2861 45.6995 63.5341 44.0908 65.0718 44.0908Z" fill="#BA9731" stroke="#BA9731"/>
<path d="M14.9283 44.0908C16.466 44.0908 17.714 45.6995 17.714 47.6817C17.714 49.6639 16.466 51.2726 14.9283 51.2726C13.3906 51.2726 12.1426 49.6639 12.1426 47.6817C12.1426 45.6995 13.3906 44.0908 14.9283 44.0908Z" fill="#BA9731" stroke="#BA9731"/>
<path d="M19.6451 1H60.3555C61.5172 1 62.5562 1.93005 62.963 3.3305L70.6432 29.7273H9.35742L17.0376 3.3305C17.4444 1.93005 18.4834 1 19.6451 1Z" stroke="#BA9731" stroke-width="2"/>
<path d="M1 18.9541H9.35715V26.1359H1V18.9541Z" fill="#BA9731" stroke="#BA9731"/>
<path d="M70.6426 18.9541H78.9997V26.1359H70.6426V18.9541Z" fill="#BA9731" stroke="#BA9731"/>
<path d="M23.2861 47.6821H56.7147" stroke="#BA9731" stroke-width="2"/>
</svg>
