<svg width="93" height="103" viewBox="0 0 93 103" fill="none" xmlns="http://www.w3.org/2000/svg">
<path fill-rule="evenodd" clip-rule="evenodd" d="M78.8636 2C85.5665 2 91 8.04418 91 15.5V87.5C91 94.9561 85.5665 101 78.8636 101H14.1364C7.43365 101 2 94.9561 2 87.5V15.5C2 8.04418 7.43365 2 14.1364 2H78.8636ZM78.8636 11C81.0979 11 82.9091 13.0147 82.9091 15.5V87.5C82.9091 89.9853 81.0979 92 78.8636 92H58.6364V60.4995H67.0355C68.7767 60.4995 70.3225 59.2603 70.8735 57.4225L72.6656 51.4419C73.3206 49.2563 71.8581 46.9995 69.7873 46.9995H58.6364V37.9996C58.6364 35.7496 60.6591 33.4996 62.6818 33.4996H70.7727C73.007 33.4996 74.8182 31.4849 74.8182 28.9996V25.9127C74.8182 24.4591 73.9836 23.1558 72.7198 22.7849C67.417 21.2283 62.6818 21.2283 62.6818 21.2283C52.5682 21.2283 46.5 28.9996 46.5 35.7496V46.9995H38.4091C36.1749 46.9995 34.3636 49.0142 34.3636 51.4995V55.9995C34.3636 58.4849 36.1748 60.4995 38.4091 60.4995H46.5V92H14.1364C11.9021 92 10.0909 89.9853 10.0909 87.5V15.5C10.0909 13.0147 11.9021 11 14.1364 11H78.8636Z" stroke="#BA9731" stroke-width="2.4"/>
</svg>
