<svg width="39" height="44" viewBox="0 0 39 44" fill="none" xmlns="http://www.w3.org/2000/svg">
<g opacity="0.2" clip-path="url(#clip0_524_414)">
<path d="M31.6875 16.5002H28.4375V11.9168C28.4375 9.24256 27.4959 6.67783 25.8198 4.78684C24.1437 2.89584 21.8704 1.8335 19.5 1.8335H17.875C15.5046 1.8335 13.2313 2.89584 11.5552 4.78684C9.87913 6.67783 8.9375 9.24256 8.9375 11.9168V16.5002H5.6875C5.25652 16.5002 4.8432 16.6933 4.53845 17.0371C4.2337 17.3809 4.0625 17.8473 4.0625 18.3335V40.3335C4.0625 40.8197 4.2337 41.286 4.53845 41.6299C4.8432 41.9737 5.25652 42.1668 5.6875 42.1668H31.6875C32.1185 42.1668 32.5318 41.9737 32.8365 41.6299C33.1413 41.286 33.3125 40.8197 33.3125 40.3335V18.3335C33.3125 17.8473 33.1413 17.3809 32.8365 17.0371C32.5318 16.6933 32.1185 16.5002 31.6875 16.5002ZM12.1875 11.9168C12.1875 10.215 12.7867 8.58292 13.8533 7.37956C14.9199 6.1762 16.3666 5.50016 17.875 5.50016H19.5C21.0084 5.50016 22.4551 6.1762 23.5217 7.37956C24.5883 8.58292 25.1875 10.215 25.1875 11.9168V16.5002H12.1875V11.9168ZM30.0625 38.5002H7.3125V20.1668H30.0625V38.5002Z" fill="#0D0D0D"/>
<path d="M12.1875 32.0835C13.5337 32.0835 14.625 30.8523 14.625 29.3335C14.625 27.8147 13.5337 26.5835 12.1875 26.5835C10.8413 26.5835 9.75 27.8147 9.75 29.3335C9.75 30.8523 10.8413 32.0835 12.1875 32.0835Z" fill="#0D0D0D"/>
<path d="M18.6875 32.0835C20.0337 32.0835 21.125 30.8523 21.125 29.3335C21.125 27.8147 20.0337 26.5835 18.6875 26.5835C17.3413 26.5835 16.25 27.8147 16.25 29.3335C16.25 30.8523 17.3413 32.0835 18.6875 32.0835Z" fill="#0D0D0D"/>
<path d="M25.1875 32.0835C26.5337 32.0835 27.625 30.8523 27.625 29.3335C27.625 27.8147 26.5337 26.5835 25.1875 26.5835C23.8413 26.5835 22.75 27.8147 22.75 29.3335C22.75 30.8523 23.8413 32.0835 25.1875 32.0835Z" fill="#0D0D0D"/>
</g>
<defs>
<clipPath id="clip0_524_414">
<rect width="39" height="44" fill="white"/>
</clipPath>
</defs>
</svg>
