<svg width="112" height="103" viewBox="0 0 112 103" fill="none" xmlns="http://www.w3.org/2000/svg">
<path d="M104.168 35.5C103.583 34.3755 102.614 33.2711 101.482 33.8417C101.427 33.8666 101.162 34.0035 100.737 34.2138C100.407 34.3789 100.006 34.5841 99.4789 34.851L56.544 56.4433C56.5918 56.2464 56.6206 56.0564 56.6768 55.8626C57.4794 53.9772 69.6905 4.37406 69.6905 4.37406L69.2991 2L51.1184 45.6851L53.7673 51.8766L50.501 59.4828L16.9094 76.3773C15.7058 76.9845 14.9985 77.3383 14.9117 77.3783C13.7795 77.9524 14.1245 79.3737 14.7093 80.4882C15.2943 81.6129 21.1789 92.3339 21.9832 93.8755C23.9265 93.1283 24.0421 91.9767 23.4148 90.7725C22.784 89.5712 18.5964 81.5497 18.5964 81.5497C18.5964 81.5497 18.8856 81.4063 19.4039 81.1425L20.4342 80.6222L25.9262 91.1363L27.4752 90.3521L21.9835 79.8415L23.2826 79.1908L28.7778 89.7052L30.3264 88.9245L24.8362 78.4136L25.9262 77.8626L31.4164 88.377L32.9669 87.5963L27.4749 77.0845L28.7775 76.4307L34.2692 86.9414L35.8216 86.1607L30.3296 75.65L31.6713 74.9694L37.1629 85.4872L38.7119 84.7065L33.2202 74.1887L34.5193 73.5346L39.972 83.9752C39.8718 84.169 39.7562 84.3593 39.6627 84.5627C37.1344 89.8915 38.2142 96.0244 42.2813 99.468C43.0192 100.099 43.8457 100.623 44.7298 101.023C47.5982 102.338 50.8729 102.324 53.9435 100.99C56.9328 99.6952 59.3775 97.2926 60.833 94.2296C62.9821 89.6915 62.5095 84.5793 59.8161 81.0257C59.5476 80.5153 58.4934 78.3796 57.5137 75.2431L58.2857 74.8562L56.5259 71.486C56.2132 70.0247 55.9528 68.4596 55.8066 66.791L59.6594 74.1655L61.2066 73.388L55.7114 62.8702L57.014 62.2195L62.5057 72.7339L64.0596 71.9532L58.5679 61.4423L59.6629 60.8885L65.1511 71.3994L66.7053 70.6219L61.2136 60.1075L62.5127 59.4534L68.0079 69.9643L69.5583 69.1868L64.0596 58.6859L65.403 58.0118L70.8979 68.5259L72.4486 67.7483L66.9569 57.2342L68.2595 56.5836L73.7511 67.0945L75.2981 66.3138L69.8029 55.7997L71.0746 55.1559L76.5666 65.6734L78.117 64.8959L72.6253 54.3812L73.9276 53.7272L79.4196 64.2381L80.9665 63.4574L75.478 52.9465L76.8211 52.2692L82.3128 62.7836L83.8635 62.0029L78.3718 51.4903L79.6671 50.8345L85.1626 61.3523L86.713 60.5747L81.2178 50.0586L82.5918 49.368L88.0835 59.8803L89.6342 59.0996L84.1387 48.5856L85.4413 47.9332L90.933 58.4458L92.4872 57.6683L86.9955 47.1539L88.0904 46.6001L93.5789 57.1176L95.1293 56.337L89.6345 45.8226L90.9368 45.1685L96.4284 55.6794L97.9791 54.9019L92.4875 44.3878L93.8305 43.7103L99.3222 54.2247L100.873 53.4471L95.3815 42.9307L96.6768 42.2784L102.169 52.7924L103.716 52.0083L98.2241 41.4957L99.5843 40.8116L105.076 51.326L106.623 50.5467L101.131 40.0323L101.971 39.6086C102.495 39.3499 102.784 39.2034 102.784 39.2034C102.784 39.2034 106.974 47.2251 107.603 48.4247C108.228 49.6309 109.245 50.2115 111 49.0988C110.191 47.5674 104.757 36.6193 104.168 35.5ZM53.9633 44.7079C54.6843 43.8903 55.9406 43.7986 56.7755 44.5058C57.6052 45.2134 57.7004 46.4495 56.9796 47.2671C56.2586 48.0829 55.0006 48.1764 54.1657 47.4691C53.3325 46.7616 53.2422 45.5237 53.9633 44.7079ZM47.1978 67.1611L47.118 67.3611L47.0551 67.2374L47.1978 67.1611ZM45.5009 68.0152L46.2339 69.4166L45.4907 71.1382L44.2036 68.6759L45.5009 68.0152ZM42.6532 69.4534L44.6101 73.1974L43.9913 74.6456L41.5634 70.0041L42.6532 69.4534ZM40.0075 70.7813L43.1019 76.7045L42.364 78.423L38.7154 71.4323L40.0075 70.7813ZM37.1629 72.2164L41.4799 80.4784L40.8558 81.9295L36.068 72.7636L37.1629 72.2164ZM57.4045 92.6776C56.3349 94.9228 54.5649 96.6748 52.4175 97.6058C50.3551 98.5002 48.1941 98.5267 46.3239 97.6726C45.7595 97.4123 45.2272 97.0751 44.7528 96.6748C41.9575 94.3021 41.2705 89.9712 43.0882 86.1407C44.1579 83.8918 45.9261 82.1398 48.0753 81.2088C50.1324 80.3147 52.2987 80.2913 54.1654 81.1422C54.7367 81.406 55.2621 81.736 55.74 82.1398C58.5368 84.5059 59.2237 88.8433 57.4045 92.6776Z" fill="#BA9731" stroke="#BA9731"/>
<path d="M59.8359 49.9726L99.0442 27.2256L96.4769 27.2707C96.4769 27.2707 76.7332 35.1739 62.101 41.1133C61.2437 44.5018 60.4618 47.5634 59.8359 49.9726Z" fill="#BA9731" stroke="#BA9731"/>
<path d="M19.9783 67.8615C19.9955 67.8481 20.0156 67.8349 20.0328 67.8215C20.0124 67.8681 20.0022 67.8983 20.0022 67.8983L51.1287 49.8029L51.1491 49.8063L49.6205 46.2344C47.9988 46.9119 46.9548 47.3654 46.7201 47.5023C34.4661 52.4324 21.5241 47.9846 20.6006 47.6526C16.6867 45.6606 11.5894 45.934 7.40347 48.5584C4.49921 50.3804 2.39957 53.0765 1.48837 56.1564C0.548042 59.3197 0.976707 62.503 2.67855 65.1191C3.22953 65.9666 3.90106 66.7273 4.67452 67.3811C8.69209 70.7911 14.9916 70.9914 19.9783 67.8615ZM7.13963 64.5713C6.64486 64.151 6.21649 63.6603 5.86442 63.1234C4.75431 61.4148 4.48873 59.3128 5.11979 57.184C5.77443 54.9751 7.3097 53.0214 9.43672 51.6849C13.0277 49.4326 17.4704 49.5008 20.2387 51.8483C20.7366 52.269 21.1653 52.7576 21.5206 53.3C22.6275 55.0019 22.8925 57.1074 22.2652 59.2294C21.6106 61.4414 20.0753 63.3937 17.9448 64.7316C14.3506 66.9874 9.9111 66.9205 7.13963 64.5713Z" fill="#BA9731" stroke="#BA9731"/>
</svg>
