<svg width="91" height="79" viewBox="0 0 91 79" fill="none" xmlns="http://www.w3.org/2000/svg">
<path d="M2.34753 19.4543C0.682707 21.1226 0.541032 23.9861 2.0311 25.8501C3.52112 27.7141 6.07865 27.8727 7.74344 26.2044L2.34753 19.4543ZM83.2566 26.2044C84.9213 27.8727 87.4789 27.7141 88.9688 25.8501C90.4591 23.9861 90.3171 21.1226 88.6524 19.4543L83.2566 26.2044ZM45.5 68.9412C43.2657 68.9412 41.4546 70.969 41.4546 73.4706C41.4546 75.9722 43.2657 78 45.5 78V68.9412ZM45.5405 78C47.7748 78 49.5859 75.9722 49.5859 73.4706C49.5859 70.969 47.7748 68.9412 45.5405 68.9412V78ZM56.3843 60.0635C58.0369 61.7467 60.5956 61.6112 62.0989 59.761C63.6026 57.9102 63.4812 55.0458 61.8287 53.3623L56.3843 60.0635ZM69.9908 43.3061C71.6433 44.9892 74.2021 44.8538 75.7054 43.003C77.2087 41.1528 77.0877 38.2879 75.4351 36.6048L69.9908 43.3061ZM29.1714 53.3623C27.5187 55.0458 27.3976 57.9102 28.901 59.761C30.4044 61.6112 32.9629 61.7467 34.6157 60.0635L29.1714 53.3623ZM15.565 36.6048C13.9123 38.2879 13.7911 41.1528 15.2946 43.003C16.798 44.8538 19.3565 44.9892 21.0093 43.3061L15.565 36.6048ZM7.74344 26.2044C17.7662 16.1607 30.9918 10.0588 45.5 10.0588V1C28.9248 1 13.7963 7.98155 2.34753 19.4543L7.74344 26.2044ZM45.5 10.0588C60.0082 10.0588 73.234 16.1607 83.2566 26.2044L88.6524 19.4543C77.2038 7.98155 62.075 1 45.5 1V10.0588ZM45.5 78H45.5405V68.9412H45.5V78ZM45.5 55.3529C49.6939 55.3529 53.5072 57.1335 56.3843 60.0635L61.8287 53.3623C57.5203 48.9746 51.785 46.2941 45.5 46.2941V55.3529ZM45.5 32.7059C54.9336 32.7059 63.5209 36.7167 69.9908 43.3061L75.4351 36.6048C67.534 28.5578 57.0243 23.6471 45.5 23.6471V32.7059ZM34.6157 60.0635C37.4928 57.1335 41.3061 55.3529 45.5 55.3529V46.2941C39.215 46.2941 33.4798 48.9746 29.1714 53.3623L34.6157 60.0635ZM21.0093 43.3061C27.4793 36.7167 36.0666 32.7059 45.5 32.7059V23.6471C33.9756 23.6471 23.4662 28.5578 15.565 36.6048L21.0093 43.3061Z" fill="#BA9731"/>
<path d="M2.34753 19.4543C0.682707 21.1226 0.541032 23.9861 2.0311 25.8501C3.52112 27.7141 6.07865 27.8727 7.74344 26.2044M2.34753 19.4543L7.74344 26.2044M2.34753 19.4543C13.7963 7.98155 28.9248 1 45.5 1M7.74344 26.2044C17.7662 16.1607 30.9918 10.0588 45.5 10.0588M83.2566 26.2044C84.9213 27.8727 87.4789 27.7141 88.9688 25.8501C90.4591 23.9861 90.3171 21.1226 88.6524 19.4543M83.2566 26.2044L88.6524 19.4543M83.2566 26.2044C73.234 16.1607 60.0082 10.0588 45.5 10.0588M88.6524 19.4543C77.2038 7.98155 62.075 1 45.5 1M45.5 68.9412C43.2657 68.9412 41.4546 70.969 41.4546 73.4706C41.4546 75.9722 43.2657 78 45.5 78M45.5 68.9412V78M45.5 68.9412H45.5405M45.5 78H45.5405M45.5405 78C47.7748 78 49.5859 75.9722 49.5859 73.4706C49.5859 70.969 47.7748 68.9412 45.5405 68.9412M45.5405 78V68.9412M56.3843 60.0635C58.0369 61.7467 60.5956 61.6112 62.0989 59.761C63.6026 57.9102 63.4812 55.0458 61.8287 53.3623M56.3843 60.0635L61.8287 53.3623M56.3843 60.0635C53.5072 57.1335 49.6939 55.3529 45.5 55.3529M61.8287 53.3623C57.5203 48.9746 51.785 46.2941 45.5 46.2941M69.9908 43.3061C71.6433 44.9892 74.2021 44.8538 75.7054 43.003C77.2087 41.1528 77.0877 38.2879 75.4351 36.6048M69.9908 43.3061L75.4351 36.6048M69.9908 43.3061C63.5209 36.7167 54.9336 32.7059 45.5 32.7059M75.4351 36.6048C67.534 28.5578 57.0243 23.6471 45.5 23.6471M29.1714 53.3623C27.5187 55.0458 27.3976 57.9102 28.901 59.761C30.4044 61.6112 32.9629 61.7467 34.6157 60.0635M29.1714 53.3623L34.6157 60.0635M29.1714 53.3623C33.4798 48.9746 39.215 46.2941 45.5 46.2941M34.6157 60.0635C37.4928 57.1335 41.3061 55.3529 45.5 55.3529M15.565 36.6048C13.9123 38.2879 13.7911 41.1528 15.2946 43.003C16.798 44.8538 19.3565 44.9892 21.0093 43.3061M15.565 36.6048L21.0093 43.3061M15.565 36.6048C23.4662 28.5578 33.9756 23.6471 45.5 23.6471M21.0093 43.3061C27.4793 36.7167 36.0666 32.7059 45.5 32.7059M45.5 10.0588V1M45.5 55.3529V46.2941M45.5 32.7059V23.6471" stroke="#BA9731"/>
</svg>
