<svg width="42" height="39" viewBox="0 0 42 39" fill="none" xmlns="http://www.w3.org/2000/svg">
<g clip-path="url(#clip0_626_656)">
<path d="M37.443 0.0209961H19.068C18.0237 0.0209961 17.0222 0.399272 16.2837 1.07261C15.5453 1.74595 15.1305 2.6592 15.1305 3.61145V10.7924C15.1305 11.1098 15.2688 11.4142 15.5149 11.6386C15.761 11.8631 16.0949 11.9892 16.443 11.9892C16.7911 11.9892 17.1249 11.8631 17.3711 11.6386C17.6172 11.4142 17.7555 11.1098 17.7555 10.7924V3.61145C17.7555 3.29403 17.8938 2.98962 18.1399 2.76517C18.386 2.54072 18.7199 2.41463 19.068 2.41463H37.443C37.7911 2.41463 38.1249 2.54072 38.3711 2.76517C38.6172 2.98962 38.7555 3.29403 38.7555 3.61145V35.9255H33.5055V27.5478C33.5055 27.2304 33.3672 26.926 33.1211 26.7015C32.8749 26.4771 32.5411 26.351 32.193 26.351H24.318C23.9699 26.351 23.636 26.4771 23.3899 26.7015C23.1438 26.926 23.0055 27.2304 23.0055 27.5478V35.9255H19.068C18.7199 35.9255 18.386 36.0516 18.1399 36.2761C17.8938 36.5005 17.7555 36.8049 17.7555 37.1224C17.7555 37.4398 17.8938 37.7442 18.1399 37.9686C18.386 38.1931 18.7199 38.3192 19.068 38.3192H41.3805V3.61145C41.3805 2.6592 40.9656 1.74595 40.2272 1.07261C39.4888 0.399272 38.4873 0.0209961 37.443 0.0209961ZM25.6305 35.9255V28.7446H30.8805V35.9255H25.6305ZM25.6305 11.9892H20.3805V7.20191H25.6305V11.9892ZM36.1305 11.9892H30.8805V7.20191H36.1305V11.9892ZM30.8805 16.7765H36.1305V21.5637H30.8805V16.7765ZM21.0236 21.5637H25.6305V16.7765H20.3805V20.4291C19.9228 19.66 19.3523 18.9514 18.6847 18.3228C16.6958 16.5144 14.0017 15.4988 11.193 15.4988C8.38426 15.4988 5.69015 16.5144 3.70123 18.3228C1.71803 20.1364 0.60437 22.593 0.60437 25.1542C0.60437 27.7153 1.71803 30.172 3.70123 31.9856L10.2637 37.9697C10.3858 38.0808 10.5308 38.1688 10.6902 38.2288C10.8497 38.2887 11.0205 38.3195 11.193 38.3192C11.3655 38.3195 11.5363 38.2887 11.6957 38.2288C11.8552 38.1688 12.0001 38.0808 12.1222 37.9697L18.6847 31.9856C20.1489 30.647 21.1508 28.9464 21.5664 27.0942C21.9821 25.2419 21.7934 23.3192 21.0236 21.5637ZM11.193 35.4301L5.55973 30.2909C4.06704 28.9279 3.22863 27.0804 3.22863 25.1542C3.22863 23.2279 4.06704 21.3804 5.55973 20.0174C6.29875 19.3421 7.17689 18.8067 8.14365 18.4419C9.11041 18.0771 10.1467 17.8902 11.193 17.8919C12.2392 17.8902 13.2755 18.0771 14.2423 18.4419C15.2091 18.8067 16.0872 19.3421 16.8262 20.0174C18.3189 21.3804 19.1573 23.2279 19.1573 25.1542C19.1573 27.0804 18.3189 28.9279 16.8262 30.2909L11.193 35.4301ZM15.1305 25.1542C15.1305 26.1064 14.7156 27.0197 13.9772 27.693C13.2388 28.3664 12.2373 28.7446 11.193 28.7446C10.1487 28.7446 9.14717 28.3664 8.40874 27.693C7.67032 27.0197 7.25548 26.1064 7.25548 25.1542C7.25548 24.2019 7.67032 23.2887 8.40874 22.6153C9.14717 21.942 10.1487 21.5637 11.193 21.5637C12.2373 21.5637 13.2388 21.942 13.9772 22.6153C14.7156 23.2887 15.1305 24.2019 15.1305 25.1542Z" fill="#0D0D0D"/>
</g>
<defs>
<clipPath id="clip0_626_656">
<rect width="42" height="38.2982" fill="white" transform="translate(0 0.0209961)"/>
</clipPath>
</defs>
</svg>
