<svg width="104" height="95" viewBox="0 0 104 95" fill="none" xmlns="http://www.w3.org/2000/svg">
<path d="M52.9999 48.6342C41.6665 48.6342 31.6665 38.0488 31.6665 24.4391C31.6665 10.8293 40.9999 1 52.9999 1C64.3332 1 74.3332 11.5854 74.3332 25.1952C74.3332 38.8049 64.3332 48.6342 52.9999 48.6342ZM52.9999 6.29269C44.3332 6.29269 36.9998 14.6098 36.9998 24.4391C36.9998 34.2683 43.6665 42.5854 52.9999 42.5854C62.3332 42.5854 68.9999 34.2683 68.9999 24.4391C68.9999 14.6098 61.6666 6.29269 52.9999 6.29269Z" fill="#BA9731" stroke="#BA9731"/>
<path d="M86.3336 90.9755C86.3336 66.0243 71.0003 46.3657 52.3336 46.3657C33.6669 46.3657 18.3335 66.0243 18.3335 90.9755H86.3336Z" fill="#BA9731" stroke="#BA9731"/>
<path d="M86.3335 93.9999H15V90.9755C15 64.5121 31.6667 43.3413 51.6667 43.3413C71.6668 43.3413 88.3335 64.5121 88.3335 90.2194V93.2438L86.3335 93.9999ZM20.3333 87.9511H83.6668C83.0001 66.7804 69.0001 49.3901 52.3334 49.3901C35 49.3901 21.6667 66.7804 20.3333 87.9511ZM73.6668 47.8779C72.3334 47.8779 71.0001 46.3657 71.0001 44.8535C71.0001 43.3413 72.3334 41.8291 73.6668 41.8291C80.3335 41.8291 86.3335 35.7803 86.3335 27.4632C86.3335 21.4145 83.0001 16.1218 77.6668 13.8535C76.3335 13.0974 75.6668 11.5852 76.3335 10.073C77.0001 8.56078 78.3335 7.80468 79.6668 8.56078C87.0001 10.8291 91.6668 18.3901 91.6668 27.4632C91.0002 38.8047 83.0001 47.8779 73.6668 47.8779Z" fill="#BA9731" stroke="#BA9731"/>
<path d="M100.333 84.1704H94.3331C92.9997 84.1704 91.6664 82.6582 91.6664 81.146C91.6664 79.6338 92.9997 78.1216 94.3331 78.1216H97.6664C96.3331 61.4874 85.6664 48.6337 72.9997 48.6337C71.6663 48.6337 70.333 47.1216 70.333 45.6094C70.333 44.0972 71.6663 42.585 72.9997 42.585C89.6664 42.585 103 59.9752 103 81.146V84.1704H100.333Z" fill="#BA9731" stroke="#BA9731"/>
<path d="M30.9999 47.8781C30.3332 47.8781 30.3332 47.8781 30.9999 47.8781C26.3332 47.8781 21.6665 46.3659 18.3332 42.5855C14.9998 38.805 13.6665 33.5123 13.6665 28.2196C13.6665 19.9025 18.3332 12.3415 25.6665 9.31713C26.9999 8.56103 28.3332 9.31713 28.9999 10.8293C29.6665 12.3415 28.9999 13.8537 27.6665 14.6098C21.6665 16.8781 18.3332 22.1708 18.3332 28.2196C18.3332 32.0001 19.6665 35.7806 21.6665 38.0489C23.6665 41.0733 26.9999 41.8294 30.3332 42.5855C32.3332 42.5855 32.9999 44.0977 32.9999 45.6099C32.9999 47.122 32.3332 47.8781 30.9999 47.8781Z" fill="#BA9731"/>
<path d="M30.9999 47.8781C30.3332 47.8781 30.3332 47.8781 30.9999 47.8781ZM30.9999 47.8781C26.3332 47.8781 21.6665 46.3659 18.3332 42.5855C14.9998 38.805 13.6665 33.5123 13.6665 28.2196C13.6665 19.9025 18.3332 12.3415 25.6665 9.31713C26.9999 8.56103 28.3332 9.31713 28.9999 10.8293C29.6665 12.3415 28.9999 13.8537 27.6665 14.6098C21.6665 16.8781 18.3332 22.1708 18.3332 28.2196C18.3332 32.0001 19.6665 35.7806 21.6665 38.0489C23.6665 41.0733 26.9999 41.8294 30.3332 42.5855C32.3332 42.5855 32.9999 44.0977 32.9999 45.6099C32.9999 47.122 32.3332 47.8781 30.9999 47.8781Z" stroke="#BA9731"/>
<path d="M9.00002 84.1706H1V81.1462C1 59.9755 14.3334 43.3413 31.0001 43.3413C32.3334 43.3413 33.6667 44.8535 33.6667 46.3657C33.6667 47.8779 32.3334 49.3901 31.0001 49.3901C18.3334 49.3901 7.66668 62.2438 6.33334 78.8779H9.66668C11 78.8779 12.3334 80.3901 12.3334 81.9023C11.6667 82.6584 11 84.1706 9.00002 84.1706Z" fill="#BA9731" stroke="#BA9731"/>
</svg>
