<svg width="14" height="20" viewBox="0 0 14 20" fill="none" xmlns="http://www.w3.org/2000/svg">
<path fill-rule="evenodd" clip-rule="evenodd" d="M6.64247 0C10.311 0 13.2849 2.97809 13.2849 6.65174C13.2849 7.86347 12.9623 8.99886 12.3961 9.978C12.0186 10.6308 10.1007 13.9565 6.64247 19.9552C3.18422 13.9565 1.26636 10.6308 0.888868 9.978C0.322634 8.99886 0 7.86347 0 6.65174C0 2.97809 2.97394 0 6.64247 0ZM6.64247 3.80099C5.07024 3.80099 3.7957 5.07732 3.7957 6.65174C3.7957 8.22616 5.07024 9.50249 6.64247 9.50249C8.2147 9.50249 9.48925 8.22616 9.48925 6.65174C9.48925 5.07732 8.2147 3.80099 6.64247 3.80099Z" fill="#949494"/>
</svg>
