<svg width="45" height="45" viewBox="0 0 45 45" fill="none" xmlns="http://www.w3.org/2000/svg">
<g opacity="0.2">
<path d="M37.1076 17.6667H33.4479V13.0833C33.4479 10.4091 32.3876 7.84433 30.5002 5.95334C28.6128 4.06235 26.0529 3 23.3837 3H21.5538C18.8846 3 16.3247 4.06235 14.4373 5.95334C12.5499 7.84433 11.4896 10.4091 11.4896 13.0833V17.6667H7.82986C7.34455 17.6667 6.87912 17.8598 6.53595 18.2036C6.19279 18.5475 6 19.0138 6 19.5V41.5C6 41.9862 6.19279 42.4525 6.53595 42.7964C6.87912 43.1402 7.34455 43.3333 7.82986 43.3333H37.1076C37.5929 43.3333 38.0584 43.1402 38.4015 42.7964C38.7447 42.4525 38.9375 41.9862 38.9375 41.5V19.5C38.9375 19.0138 38.7447 18.5475 38.4015 18.2036C38.0584 17.8598 37.5929 17.6667 37.1076 17.6667ZM15.1493 13.0833C15.1493 11.3815 15.8241 9.74942 17.0251 8.54606C18.2262 7.34271 19.8552 6.66667 21.5538 6.66667H23.3837C25.0823 6.66667 26.7113 7.34271 27.9124 8.54606C29.1134 9.74942 29.7882 11.3815 29.7882 13.0833V17.6667H15.1493V13.0833ZM35.2778 39.6667H9.65972V21.3333H35.2778V39.6667Z" fill="#0D0D0D"/>
<path d="M15.1493 33.25C16.6652 33.25 17.8941 32.0188 17.8941 30.5C17.8941 28.9812 16.6652 27.75 15.1493 27.75C13.6334 27.75 12.4045 28.9812 12.4045 30.5C12.4045 32.0188 13.6334 33.25 15.1493 33.25Z" fill="#0D0D0D"/>
<path d="M22.4687 33.25C23.9847 33.25 25.2135 32.0188 25.2135 30.5C25.2135 28.9812 23.9847 27.75 22.4687 27.75C20.9528 27.75 19.724 28.9812 19.724 30.5C19.724 32.0188 20.9528 33.25 22.4687 33.25Z" fill="#0D0D0D"/>
<path d="M29.7882 33.25C31.3041 33.25 32.533 32.0188 32.533 30.5C32.533 28.9812 31.3041 27.75 29.7882 27.75C28.2723 27.75 27.0434 28.9812 27.0434 30.5C27.0434 32.0188 28.2723 33.25 29.7882 33.25Z" fill="#0D0D0D"/>
</g>
</svg>
