<svg width="41" height="41" viewBox="0 0 41 41" fill="none" xmlns="http://www.w3.org/2000/svg">
<g clip-path="url(#clip0_627_1193)">
<path d="M28.9145 8.86593C29.1608 8.4814 29.0485 7.96986 28.664 7.72369C26.228 6.16425 23.405 5.33984 20.5 5.33984C12.1408 5.33984 5.33984 12.1407 5.33984 20.5C5.33984 28.8594 12.1407 35.6602 20.5 35.6602C28.8593 35.6602 35.6602 28.8594 35.66 20.5001C35.66 17.0826 34.5501 13.8564 32.4499 11.1703C32.1689 10.8106 31.6492 10.747 31.2893 11.0281C30.9294 11.3094 30.8658 11.829 31.1472 12.1889C33.0176 14.5813 34.0063 17.4552 34.0063 20.4999C34.0063 27.9474 27.9474 34.0063 20.4999 34.0063C13.0525 34.0063 6.9937 27.9473 6.9937 20.4999C6.9937 13.0524 13.0526 6.99362 20.5 6.99362C23.0884 6.99362 25.603 7.7277 27.7723 9.1165C28.1565 9.36266 28.6682 9.25055 28.9145 8.86593Z" fill="#0D0D0D"/>
<path d="M40.0703 20.5C40.0703 19.5494 40.3003 18.4965 40.5226 17.4783C40.9133 15.6895 41.3172 13.8398 40.6224 12.1644C39.8981 10.4177 38.2716 9.38614 36.6984 8.38861C35.8082 7.82398 34.9673 7.29081 34.3382 6.66164C33.7092 6.03254 33.1759 5.19172 32.6114 4.30141C31.6138 2.72843 30.5822 1.1018 28.8357 0.377496C27.1601 -0.317103 25.3106 0.0867317 23.5217 0.477354C22.5035 0.699731 21.4506 0.929636 20.5 0.929636C19.5494 0.929636 18.4966 0.699731 17.4784 0.477354C15.6896 0.0867317 13.8398 -0.317183 12.1644 0.377496C10.4177 1.10172 9.38628 2.72835 8.38867 4.30141C7.8242 5.19164 7.29088 6.03254 6.66186 6.66164C6.03277 7.29065 5.19178 7.82398 4.30163 8.38845C2.7285 9.38606 1.10187 10.4177 0.377558 12.1644C-0.317121 13.8397 0.0867139 15.6893 0.477336 17.4781C0.699713 18.4963 0.929698 19.5493 0.929698 20.4999C0.929698 21.4505 0.699713 22.5034 0.477336 23.5216C0.0867139 25.3104 -0.317201 27.1602 0.377558 28.8356C1.10195 30.5823 2.72858 31.6139 4.30163 32.6115L4.61963 32.8136C5.00464 33.0591 5.51586 32.9462 5.76146 32.5612C6.00722 32.1762 5.89423 31.665 5.50921 31.4193L5.18738 31.2148C3.76895 30.3153 2.42924 29.4657 1.90521 28.2021C1.40937 27.0061 1.74161 25.485 2.09324 23.8746C2.33427 22.7707 2.58355 21.6291 2.58355 20.4999C2.58355 19.3708 2.33435 18.2292 2.09324 17.1251C1.74161 15.5148 1.40945 13.9937 1.90521 12.7977C2.42924 11.5341 3.76895 10.6845 5.1873 9.78501C6.11437 9.19724 7.07274 8.58928 7.83124 7.83094C8.58959 7.0726 9.19754 6.11406 9.78539 5.187C10.6848 3.76865 11.5344 2.4291 12.7979 1.90515C13.9939 1.40914 15.5151 1.74131 17.1256 2.09301C18.2295 2.33405 19.3711 2.58333 20.5001 2.58333C21.6291 2.58333 22.7706 2.33413 23.8746 2.09301C25.4851 1.74131 27.0064 1.40906 28.2023 1.90515C29.4658 2.4291 30.3153 3.76865 31.2148 5.187C31.8027 6.11406 32.4106 7.0726 33.169 7.83094C33.9273 8.58928 34.886 9.19724 35.8129 9.78509C37.2313 10.6845 38.571 11.5342 39.095 12.7977C39.5909 13.9938 39.2586 15.5149 38.9071 17.1252C38.666 18.2292 38.4167 19.3708 38.4167 20.5C38.4167 21.6292 38.666 22.7707 38.9071 23.8747C39.2587 25.4851 39.5909 27.0062 39.095 28.2021C38.571 29.4658 37.2313 30.3154 35.8129 31.2148C34.8859 31.8026 33.9275 32.4106 33.169 33.1689C32.4106 33.9273 31.8027 34.8858 31.2148 35.8129C30.3155 37.2312 29.4658 38.5708 28.2023 39.0947C27.0063 39.5906 25.4851 39.2585 23.8746 38.9068C22.7707 38.6658 21.6291 38.4165 20.5001 38.4165C19.3711 38.4165 18.2296 38.6657 17.1256 38.9068C15.5151 39.2585 13.9941 39.5908 12.7979 39.0949C11.5344 38.5709 10.6849 37.2312 9.78539 35.813C9.5498 35.4415 9.30621 35.0576 9.05476 34.6894C8.79699 34.3124 8.28233 34.2157 7.90548 34.4733C7.52839 34.731 7.43157 35.2455 7.68927 35.6226C7.92486 35.9673 8.15028 36.3225 8.38875 36.6987C9.38636 38.2717 10.4179 39.8983 12.1644 40.6226C12.8268 40.8971 13.5159 41.0001 14.218 41.0001C15.2924 41.0001 16.3967 40.759 17.4784 40.5226C18.4966 40.3002 19.5495 40.0703 20.5001 40.0703C21.4507 40.0703 22.5036 40.3002 23.5218 40.5226C25.3106 40.9132 27.1602 41.3171 28.8358 40.6224C30.5824 39.8981 31.6139 38.2716 32.6115 36.6985C33.1759 35.8083 33.7093 34.9674 34.3383 34.3383C34.9674 33.7093 35.8083 33.176 36.6985 32.6115C38.2716 31.6139 39.8982 30.5822 40.6225 28.8356C41.3172 27.1602 40.9133 25.3106 40.5227 23.5218C40.3003 22.5036 40.0703 21.4507 40.0703 20.5Z" fill="#0D0D0D"/>
<path d="M13.2998 27.6999C13.4613 27.8614 13.673 27.9421 13.8846 27.9421C14.0962 27.9421 14.3079 27.8614 14.4692 27.6999L27.6999 14.4692C28.0229 14.1464 28.0229 13.6228 27.6999 13.2998C27.377 12.9769 26.8535 12.9769 26.5305 13.2998L13.2998 26.5305C12.9769 26.8533 12.9769 27.377 13.2998 27.6999Z" fill="#0D0D0D"/>
<path d="M16.0901 19.1221C17.7619 19.1221 19.1221 17.762 19.1221 16.0901C19.1221 14.4182 17.7619 13.0581 16.0901 13.0581C14.4183 13.0581 13.0581 14.4182 13.0581 16.0901C13.0581 17.762 14.4183 19.1221 16.0901 19.1221ZM16.0901 14.7119C16.85 14.7119 17.4683 15.3301 17.4683 16.0901C17.4683 16.8501 16.8501 17.4683 16.0901 17.4683C15.3301 17.4683 14.7119 16.8501 14.7119 16.0901C14.712 15.3301 15.3302 14.7119 16.0901 14.7119Z" fill="#0D0D0D"/>
<path d="M24.9104 27.9424C26.5822 27.9424 27.9424 26.5823 27.9424 24.9104C27.9424 23.2385 26.5822 21.8784 24.9104 21.8784C23.2386 21.8784 21.8784 23.2385 21.8784 24.9104C21.8784 26.5823 23.2386 27.9424 24.9104 27.9424ZM24.9104 23.5322C25.6703 23.5322 26.2886 24.1504 26.2886 24.9104C26.2886 25.6704 25.6704 26.2886 24.9104 26.2886C24.1504 26.2886 23.5322 25.6704 23.5322 24.9104C23.5322 24.1504 24.1504 23.5322 24.9104 23.5322Z" fill="#0D0D0D"/>
</g>
<defs>
<clipPath id="clip0_627_1193">
<rect width="41" height="41" fill="white"/>
</clipPath>
</defs>
</svg>
