<svg width="76" height="112" viewBox="0 0 76 112" fill="none" xmlns="http://www.w3.org/2000/svg">
<path d="M70.3135 47.6709L73.2236 10.3317C73.2294 10.258 73.2323 10.1844 73.2323 10.1104C73.2323 5.08697 69.3216 1 64.5149 1H11.4851C6.67862 1 2.76795 5.08697 2.76795 10.1104C2.76795 10.1844 2.77108 10.258 2.77666 10.3317L5.68677 47.6709C2.86153 49.16 1 52.0437 1 55.2874V59.2953C1 59.8487 1.0172 60.4052 1.05159 60.9496C1.05159 60.9498 1.05159 60.9502 1.05159 60.9502C1.05159 60.9509 1.05159 60.9511 1.05159 60.9513C1.05159 60.9528 1.05159 60.9545 1.05182 60.956C1.05182 60.9569 1.05204 60.9582 1.05204 60.959C1.82166 73.5117 11.2073 83.737 23.4771 86.4431L20.7394 107.678C20.6308 108.52 20.9028 109.365 21.4869 110.001C22.0702 110.636 22.9095 111 23.7908 111H52.2092C53.0905 111 53.9298 110.636 54.5131 110.001C55.0967 109.365 55.369 108.52 55.2606 107.678L52.5229 86.4431C64.7925 83.7372 74.1783 73.5119 74.948 60.9592C74.948 60.9582 74.9482 60.9571 74.9482 60.956C74.9482 60.9545 74.9482 60.9528 74.9484 60.9513C74.9484 60.9511 74.9484 60.9506 74.9484 60.9502V60.9496C74.9828 60.4054 75 59.8487 75 59.2953V55.2869C75.0007 52.0437 73.1391 49.16 70.3135 47.6709ZM11.4851 6.91594H64.5151C65.8811 6.91594 67.0391 8.32531 67.0815 10.0151L66.9274 11.9921H9.07303L8.91893 10.0151C8.96114 8.32531 10.1192 6.91594 11.4851 6.91594ZM66.4662 17.9076L64.2295 46.6055H11.7707L9.534 17.9076H66.4662ZM27.2709 105.084L29.5836 87.1472H46.4171L48.7298 105.084H27.2709ZM68.8508 57.8195H61.1135C59.4154 57.8195 58.0385 59.1438 58.0385 60.7775C58.0385 62.4112 59.4154 63.7355 61.1135 63.7355H68.3834C66.2429 73.765 56.9935 81.2315 46.0472 81.2315H29.9532C19.0065 81.2315 9.75757 73.765 7.61708 63.7352H40.204C41.9021 63.7352 43.2789 62.4109 43.2789 60.7773C43.2789 59.1436 41.9021 57.8193 40.204 57.8193H7.14986V55.2874C7.14986 53.9525 8.1359 52.8083 9.49358 52.5674C9.66466 52.5369 9.84221 52.5219 10.0218 52.5219H65.9789C66.1585 52.5219 66.3362 52.5374 66.5062 52.5674C67.8648 52.8085 68.8508 53.9528 68.8508 55.2876V57.8195Z" fill="#BA9731" stroke="#BA9731" stroke-width="0.390624"/>
<path d="M51.158 57.8188H50.2356C48.5375 57.8188 47.1606 59.1431 47.1606 60.7768C47.1606 62.4105 48.5375 63.7348 50.2356 63.7348H51.158C52.856 63.7348 54.2329 62.4105 54.2329 60.7768C54.2329 59.1431 52.856 57.8188 51.158 57.8188Z" fill="#BA9731" stroke="#BA9731" stroke-width="0.390624"/>
<path d="M20.3193 22.3237H16.322C14.624 22.3237 13.2471 23.648 13.2471 25.2817C13.2471 26.9154 14.624 28.2397 16.322 28.2397H20.3193C22.0174 28.2397 23.3942 26.9154 23.3942 25.2817C23.3942 23.648 22.0174 22.3237 20.3193 22.3237Z" fill="#BA9731" stroke="#BA9731" stroke-width="0.390624"/>
</svg>
