<svg width="42" height="43" viewBox="0 0 42 43" fill="none" xmlns="http://www.w3.org/2000/svg">
<g clip-path="url(#clip0_627_785)">
<path d="M37.7095 16.9363C37.0357 10.0958 32.6334 1.98507 24.5613 0.34015C23.4548 0.114608 22.3088 0 21.1571 0C15.3641 0 9.82434 2.84389 6.69928 7.4216C6.62034 7.53694 6.54356 7.65302 6.4675 7.7713C3.00015 13.1498 3.54264 20.6265 7.70246 24.792C8.01245 25.1021 8.34182 25.3974 8.67047 25.692C9.45192 26.3914 10.1903 27.0526 10.6711 27.9158C11.4597 29.3308 11.4683 31.296 10.6941 33.1738C9.97575 34.915 8.74654 36.3924 7.5575 37.8221C7.46422 37.9345 7.44556 38.0932 7.51014 38.2247C7.57473 38.3569 7.71322 38.4355 7.85387 38.4267C10.5742 38.2519 13.179 36.7414 15.0003 34.2825C16.8208 31.8235 17.5383 28.8481 16.9686 26.1188C16.9392 25.9771 16.8315 25.8669 16.6923 25.8367C16.5574 25.8051 16.4117 25.861 16.3278 25.9785C15.9446 26.5134 15.3734 26.6258 14.9622 26.6258C14.3064 26.6258 13.5852 26.3334 13.1252 25.8808C10.8519 23.6467 10.6919 20.1409 10.7988 18.2498C10.928 15.9606 11.6922 14.2092 12.5016 12.3549C12.526 12.2983 12.5511 12.2417 12.5763 12.1844C12.953 14.0549 14.4692 15.7887 15.9869 16.9061C16.3773 17.1941 16.782 17.474 17.1896 17.7561C18.9032 18.9404 20.6749 20.1658 21.386 22.0569C22.4437 24.8692 20.822 27.9533 18.9125 30.8677C18.8379 30.9809 18.8422 31.1256 18.9046 31.2453C18.967 31.3651 19.0998 31.44 19.2325 31.44C20.1123 31.44 20.9899 31.1036 21.6694 30.5298C21.6156 33.7968 18.2703 36.3792 15.6669 38.0807L9.47703 42.1265C9.35002 42.2095 9.28688 42.3638 9.31917 42.5144C9.35074 42.665 9.47058 42.7781 9.61983 42.8002C10.5441 42.9331 11.4927 43.0007 12.4392 43.0007C19.2885 43.0007 26.587 39.4619 32.4647 33.2907C36.2973 29.264 38.3073 22.9973 37.7095 16.9363Z" fill="#0D0D0D"/>
</g>
<defs>
<clipPath id="clip0_627_785">
<rect width="42" height="43" fill="white"/>
</clipPath>
</defs>
</svg>
