<?xml version="1.0" encoding="iso-8859-1"?>
<!-- Uploaded to: SVG Repo, www.svgrepo.com, Generator: SVG Repo Mixer Tools -->
<!DOCTYPE svg PUBLIC "-//W3C//DTD SVG 1.1//EN" "http://www.w3.org/Graphics/SVG/1.1/DTD/svg11.dtd">
<svg fill="#FFFFFF" height="800px" width="800px" version="1.1" id="Capa_1" xmlns="http://www.w3.org/2000/svg" xmlns:xlink="http://www.w3.org/1999/xlink" 
	 viewBox="0 0 202.226 202.226" xml:space="preserve">
<path d="M201.269,33.738c-0.514-1.866-2.183-2.701-3.609-2.701c-0.61,0-1.52,0.151-2.388,0.871L84.113,124.117l-6.048-6.048
	L170.319,6.958c1.184-1.426,0.879-2.957,0.694-3.549c-0.182-0.577-0.79-1.971-2.521-2.449C166.184,0.323,163.693,0,161.089,0
	c-13.144,0-28.028,8.094-38.846,21.123l-99.37,119.68c-5.137,1.423-9.849,4.146-13.721,8.018c-12.197,12.198-12.197,32.044,0,44.242
	c5.909,5.909,13.765,9.163,22.121,9.163c8.356,0,16.212-3.254,22.121-9.163c3.903-3.903,6.639-8.659,8.053-13.844l119.637-99.241
	C196.862,66.89,205.162,47.875,201.269,33.738z M39.529,179.198c-4.559,4.56-11.952,4.56-16.511,0
	c-4.559-4.559-4.559-11.952,0-16.511c4.559-4.559,11.952-4.559,16.511,0C44.089,167.246,44.089,174.639,39.529,179.198z"/>
</svg>