<svg width="40" height="41" viewBox="0 0 40 41" fill="none" xmlns="http://www.w3.org/2000/svg">
<g opacity="0.39" clip-path="url(#clip0_520_261)">
<mask id="mask0_520_261" style="mask-type:luminance" maskUnits="userSpaceOnUse" x="0" y="0" width="40" height="41">
<path d="M40 0H0V41H40V0Z" fill="white"/>
</mask>
<g mask="url(#mask0_520_261)">
<path d="M40 0H0V41H40V0Z" fill="#F2F2F2"/>
<g filter="url(#filter0_d_520_261)">
<path d="M23.8942 21.0919L23.4608 20.3623C23.1803 20.5374 23.0263 20.8649 23.0675 21.1989C23.1085 21.5327 23.337 21.8108 23.6512 21.909L23.8942 21.0919ZM16.1057 21.0919L16.3487 21.909C16.6628 21.8108 16.8913 21.5327 16.9325 21.1989C16.9735 20.8649 16.8195 20.5374 16.539 20.3623L16.1057 21.0919ZM26.6667 14.5207C26.6667 16.9943 25.3848 19.1619 23.4608 20.3623L24.3275 21.8216C26.7275 20.324 28.3333 17.615 28.3333 14.5207H26.6667ZM20 7.68734C23.6818 7.68734 26.6667 10.7467 26.6667 14.5207H28.3333C28.3333 9.80324 24.6023 5.979 20 5.979V7.68734ZM13.3333 14.5207C13.3333 10.7467 16.318 7.68734 20 7.68734V5.979C15.3976 5.979 11.6666 9.80324 11.6666 14.5207H13.3333ZM16.539 20.3623C14.6151 19.1619 13.3333 16.9943 13.3333 14.5207H11.6666C11.6666 17.615 13.2724 20.324 15.6724 21.8216L16.539 20.3623ZM15.8626 20.2748C10.6014 21.9193 6.63926 26.6164 5.9424 32.356L7.5963 32.567C8.21063 27.5071 11.7063 23.3599 16.3487 21.909L15.8626 20.2748ZM5.9424 32.356C5.75821 33.873 6.98425 35.0207 8.33326 35.0207V33.3123C7.84135 33.3123 7.55313 32.9227 7.5963 32.567L5.9424 32.356ZM8.33326 35.0207H31.6667V33.3123H8.33326V35.0207ZM31.6667 35.0207C33.0157 35.0207 34.2417 33.873 34.0575 32.356L32.4035 32.567C32.4467 32.9227 32.1585 33.3123 31.6667 33.3123V35.0207ZM34.0575 32.356C33.3607 26.6164 29.3985 21.9193 24.1372 20.2748L23.6512 21.909C28.2935 23.3599 31.7892 27.5071 32.4035 32.567L34.0575 32.356Z" fill="#0D0D0D"/>
</g>
</g>
</g>
<defs>
<filter id="filter0_d_520_261" x="3.42398" y="5.979" width="33.1519" height="34.0415" filterUnits="userSpaceOnUse" color-interpolation-filters="sRGB">
<feFlood flood-opacity="0" result="BackgroundImageFix"/>
<feColorMatrix in="SourceAlpha" type="matrix" values="0 0 0 0 0 0 0 0 0 0 0 0 0 0 0 0 0 0 127 0" result="hardAlpha"/>
<feOffset dy="2.5"/>
<feGaussianBlur stdDeviation="1.25"/>
<feColorMatrix type="matrix" values="0 0 0 0 0 0 0 0 0 0 0 0 0 0 0 0 0 0 0.1 0"/>
<feBlend mode="normal" in2="BackgroundImageFix" result="effect1_dropShadow_520_261"/>
<feBlend mode="normal" in="SourceGraphic" in2="effect1_dropShadow_520_261" result="shape"/>
</filter>
<clipPath id="clip0_520_261">
<rect width="40" height="41" fill="white"/>
</clipPath>
</defs>
</svg>
